<?xml version="1.0" encoding="UTF-8" standalone="no"?><!DOCTYPE svg PUBLIC "-//W3C//DTD SVG 1.1//EN" "http://www.w3.org/Graphics/SVG/1.1/DTD/svg11.dtd"><svg width="100%" height="100%" viewBox="0 0 11734 6400" version="1.1" xmlns="http://www.w3.org/2000/svg" xmlns:xlink="http://www.w3.org/1999/xlink" xml:space="preserve" xmlns:serif="http://www.serif.com/" style="fill-rule:evenodd;clip-rule:evenodd;stroke-linejoin:round;stroke-miterlimit:2;"><g><g transform="matrix(4.166667,0,0,4.166667,1369.318274,-1359.151861)"><text x="553.229px" y="1251.158px" style="font-family:'Poppins-Bold', 'Poppins';font-weight:700;font-size:350px;fill:#1a365d;">Nout</text><g transform="matrix(350,0,0,350,2258.428926,1251.15832)"></g><text x="1417.379px" y="1251.158px" style="font-family:'Poppins-Medium', 'Poppins';font-weight:500;font-size:350px;fill:#f56565;">Asso</text></g><g id="icone"><path d="M932.196,3903.758c0,0 945.622,621.225 1361.947,-587.876l143.838,0c0,0 115.581,85.409 123.949,378.301c0,0 150.63,-267.787 135.986,-355.654c0,0 -105.504,-99.719 -266.319,-127.617c-168.835,-29.289 -599.804,-74.269 -838.302,-467.581l577.415,110.88c0,0 87.685,74.543 202,142.973c259.581,155.388 472.481,237.106 410.981,557.875c-40.213,209.744 -217.577,399.588 -217.577,399.588l-177.827,0c0,0 48.118,-253.142 -2.092,-399.588c0,0 -204.699,483.265 -680.28,598.948c-394.309,95.914 -820.031,-241.787 -773.719,-250.25Z" style="fill:#f56565;"/><path d="M2794.374,3700.449c0,0 141.496,-265.695 -57.252,-516.745c-142.969,-180.593 -401.457,-198.262 -668.565,-522.922c-75.712,-92.025 -177.507,-395.489 -181.901,-431.922l1141.266,684.004c0,0 202.932,-370.299 428.877,-209.208c0,0 154.814,-37.658 192.472,-16.737c0,0 -237.635,84.471 -290.8,338.918c-105.867,506.683 -564.097,674.612 -564.097,674.612Z" style="fill:#1a365d;"/></g></g></svg>