<?xml version="1.0" encoding="UTF-8" standalone="no"?><!DOCTYPE svg PUBLIC "-//W3C//DTD SVG 1.1//EN" "http://www.w3.org/Graphics/SVG/1.1/DTD/svg11.dtd"><svg width="100%" height="100%" viewBox="0 0 1080 1080" version="1.1" xmlns="http://www.w3.org/2000/svg" xmlns:xlink="http://www.w3.org/1999/xlink" xml:space="preserve" xmlns:serif="http://www.serif.com/" style="fill-rule:evenodd;clip-rule:evenodd;stroke-linecap:round;stroke-linejoin:round;stroke-miterlimit:1.5;"><path d="M247.379,628.5c0.756,-0.069 2.507,-0.434 6.161,-1.422c9.859,-2.665 14.389,-5.862 13.59,-11.191c-0.799,-5.329 -10.392,-13.057 -18.386,-11.724c-7.994,1.332 -18.522,-10.836 -13.924,-28.067c0,0 13.779,-7.776 17.326,-12.824c3.547,-5.048 37.654,-32.47 31.651,-43.93c0,0 -13.234,-8.049 -15.28,-17.463c0,0 11.733,15.144 16.099,12.142c4.366,-3.001 -3.411,-29.605 -9.686,-40.519c-6.276,-10.914 -4.18,-55.839 13.19,-71.966c0,0 -17.692,-17.698 -17.692,-27.86c0,0 -1.913,-8.763 -5.597,-1.26c0,0 -0.766,7.64 -4.271,7.913c-3.505,0.273 -3.915,0 -1.459,3.82c2.456,3.82 2.456,4.911 -1.637,4.502c-4.093,-0.409 -6.549,1.501 -11.596,-2.456c-5.048,-3.956 -6.476,-4.785 -9.823,-5.594c-5.082,-1.228 -5.462,-13.712 -10.237,-16.27c-4.775,-2.558 -10.914,-15.348 -9.209,-17.395c1.705,-2.046 4.946,-8.356 4.434,-12.449c-0.512,-4.093 -5.116,-23.33 6.139,-30.355c11.255,-7.025 16.712,-9.071 13.302,-13.505c-3.411,-4.434 -15.007,-6.139 -14.666,-10.062c0.341,-3.922 -1.705,-6.48 -2.899,-8.356c-1.194,-1.876 -1.876,-5.457 -4.093,-5.287c-2.217,0.171 -11.937,3.411 -13.643,1.535c-1.705,-1.876 -3.581,-4.434 1.194,-6.992c4.775,-2.558 8.015,-6.821 8.015,-8.527c0,-1.705 5.116,-1.364 5.116,-1.364c0,0 2.217,-0.171 6.31,-2.729c4.093,-2.558 7.674,-11.596 2.217,-9.721c-5.457,1.876 -9.891,1.705 -12.79,-0.341c-2.899,-2.046 -3.24,-2.217 -3.922,-8.015c-0.682,-5.798 -4.775,-3.24 -4.775,-6.992c0,-3.752 -0.512,-8.527 -10.232,-12.108c-9.721,-3.581 -9.209,-4.946 -5.116,-11.255c4.093,-6.31 2.899,-2.558 0.512,-5.969c-2.387,-3.411 -0.965,-20.155 28.013,-22.487c0,0 0.666,-6.995 7.994,-6.995c7.328,0 9.919,-1.332 5.293,-8.993c-4.627,-7.661 -0.963,-5.662 4.033,-8.66c4.996,-2.998 7.994,-1.332 7.994,-1.332l1.998,-6.328c0,0 42.885,-24.315 41.094,-28.312c0,0 8.868,-3.997 11.199,-0.999c2.332,2.998 -7.661,1.332 -7.328,6.662c0.333,5.329 2.998,4.996 6.328,3.331c3.331,-1.665 14.322,-7.994 16.654,-4.663c2.332,3.331 5.329,2.665 9.992,0.333c4.663,-2.332 15.988,3.331 18.652,7.328c2.665,3.997 21.535,4.387 33.431,-1.834c0,0 4.147,-6.112 10.914,0.109c6.767,6.221 16.699,8.622 22.593,4.475c5.894,-4.147 4.043,-5.13 14.298,-1.637c0,0 -5.135,5.785 -2.843,9.495c2.292,3.711 2.838,3.274 6.549,0.437c3.711,-2.838 3.274,-5.239 11.242,-2.947c7.967,2.292 20.082,-4.911 22.483,-7.749c2.401,-2.838 5.457,-6.658 8.841,-4.257c3.383,2.401 3.353,4.147 8.295,4.257c4.942,0.109 7.78,-0.546 11.818,-3.493c4.038,-2.947 5.566,-3.602 9.168,-0.982c3.602,2.619 6.985,9.168 11.569,8.513c4.584,-0.655 9.605,-3.165 10.696,-4.802c1.091,-1.637 4.475,-2.838 8.077,2.074c3.602,4.911 8.731,9.605 14.407,8.404c5.675,-1.201 6.33,-4.366 9.823,-4.366c3.493,0 1.965,1.746 4.584,0.982c2.619,-0.764 2.401,-4.147 2.401,-4.147c0,0 11.242,3.929 15.607,6.003c4.366,2.074 40.601,20.628 40.601,20.628c0,0 1.637,1.201 -2.074,1.637c-3.711,0.437 -9.059,3.929 -10.696,6.876c-1.637,2.947 -18.991,12.115 -17.79,15.826c1.201,3.711 6.003,5.348 5.785,7.203c-0.218,1.855 -9.823,13.807 -9.823,13.807c0,0 -8.513,8.513 -6.767,11.023c1.746,2.51 -0.873,12.224 15.717,11.023c16.59,-1.201 17.135,-1.528 20.191,-5.894c3.056,-4.366 15.498,-19.973 17.899,-16.371c2.401,3.602 2.401,6.767 5.785,6.876c3.383,0.109 5.566,-7.967 8.077,-0.437c2.51,7.531 1.746,9.932 5.021,10.914c3.274,0.982 3.165,3.929 3.929,3.602c0.764,-0.327 -1.528,0.437 1.31,-5.566c2.838,-6.003 -0.327,-5.785 5.239,-10.369c5.566,-4.584 5.566,-2.401 9.277,-6.003c3.711,-3.602 2.183,-7.858 6.658,-6.658c4.475,1.201 12.224,-1.091 14.298,9.059c2.074,10.15 0.764,15.28 6.112,14.079c5.348,-1.201 21.367,-15.062 29.25,-14.516c7.883,0.546 8.865,-1.965 11.921,2.729c3.056,4.693 3.383,3.165 4.584,1.528c1.201,-1.637 10.369,-12.115 13.315,-10.478c2.947,1.637 4.147,3.165 6.549,2.729c2.401,-0.437 10.478,-2.51 10.478,0.764c0,3.274 -3.929,6.549 -2.183,7.967c1.746,1.419 10.72,4.584 13.097,6.876c2.377,2.292 2.268,1.855 1.613,5.894c-0.655,4.038 -1.528,3.165 1.201,4.584c2.729,1.419 10.259,8.295 7.858,11.787c-2.401,3.493 -9.059,4.911 -10.15,4.802c-1.091,-0.109 -2.074,0.982 -1.201,3.602c0.873,2.619 2.292,7.094 2.51,9.059c0.218,1.965 -1.746,5.021 -6.112,3.82c-4.366,-1.201 -2.292,1.528 -2.292,3.82c0,2.292 -2.183,1.746 -5.239,5.13c-3.056,3.383 -7.749,4.911 -5.021,8.841c2.729,3.929 9.495,12.988 17.354,11.787c7.858,-1.201 19.209,-6.549 21.61,-4.147c2.401,2.401 7.858,4.911 9.823,10.15c1.965,5.239 3.056,1.091 6.439,0.218c3.383,-0.873 4.584,-2.183 7.094,-0.218c2.51,1.965 5.566,4.147 6.985,1.746c1.419,-2.401 0.873,-4.147 3.493,-0.764c2.619,3.383 3.711,1.746 7.313,3.711c3.602,1.965 20.29,15.135 11.55,21.744c-8.74,6.608 -23.875,4.477 -23.875,4.477c0,0 -2.558,3.411 1.492,4.05c4.05,0.64 1.919,7.674 -2.345,12.79c-4.263,5.116 1.066,8.953 4.477,8.74c3.411,-0.213 4.477,-0.213 7.248,5.329c2.771,5.542 6.608,4.903 14.069,5.542c7.461,0.64 10.872,-1.066 10.019,2.558c-0.853,3.624 1.279,5.116 5.756,7.674c4.477,2.558 8.953,7.674 8.74,13.003c-0.213,5.329 -9.593,14.815 -7.674,20.571c1.919,5.756 5.116,4.477 8.953,3.624c3.837,-0.853 13.856,-4.477 13.643,1.705c-0.213,6.182 -1.23,7.248 1.492,8.314c2.722,1.066 -1.737,4.263 1.017,6.182c2.754,1.919 10.002,3.624 11.494,8.1c1.492,4.477 -10.019,9.379 1.705,13.43c11.724,4.05 19.612,-11.298 29.204,4.05c0,0 3.624,0.959 -5.969,5.862c-9.593,4.903 -9.379,8.74 -3.837,11.937c5.542,3.198 7.887,4.903 3.411,7.674c-4.477,2.771 -7.035,2.771 -4.477,8.1c2.558,5.329 1.066,2.132 7.674,5.329c6.608,3.198 8.1,-0 7.461,6.182c-0.64,6.182 0.64,2.558 1.705,8.74c1.066,6.182 -1.492,11.723 -2.771,11.937c-1.279,0.214 6.395,15.136 -4.263,17.268c-10.658,2.132 -7.461,-2.984 -18.546,-5.329c-11.085,-2.345 -28.351,-8.74 -29.844,0.853c-1.492,9.593 -3.411,10.445 7.887,11.298c11.298,0.853 16.84,-1.079 16.627,3.724c-0.213,4.803 -7.248,4.803 -2.984,10.345c4.263,5.542 10.445,6.821 7.035,9.593c-3.411,2.771 -16.414,-1.066 -16.84,2.345c-0.426,3.411 -0.8,9.976 11.085,16.201c8.953,4.69 4.69,4.477 2.771,8.314c-1.919,3.837 -9.593,4.05 -6.395,7.035c3.198,2.984 6.395,1.705 3.198,6.608c-3.198,4.903 0.426,7.248 -4.477,6.395c-4.903,-0.853 -21.317,-4.05 -20.464,4.263c0.853,8.314 7.248,11.937 12.151,16.201c4.903,4.263 10.019,2.132 6.395,8.1c-3.624,5.969 3.411,10.658 -2.132,11.298c-5.542,0.64 -18.333,3.411 -16.84,8.314c1.492,4.903 5.329,6.713 3.837,9.219c-1.492,2.506 -6.182,-0.052 -8.953,3.358c-2.771,3.411 0.426,5.756 -5.116,5.116c-5.542,-0.639 -10.445,0 -12.577,0c-2.132,0 -8.74,-16.84 -12.151,-11.937c-3.411,4.903 -3.198,7.035 -5.756,5.756c-2.558,-1.279 -2.984,-4.05 -3.624,2.771c-0.639,6.821 5.542,10.978 -0.639,15.028c-6.182,4.05 -6.182,4.05 -11.724,-2.345c-5.542,-6.395 -8.953,-12.151 -10.232,-7.674c-1.279,4.477 2.345,7.461 -2.771,6.608c-5.116,-0.853 -1.279,0 -7.248,1.919c-5.969,1.919 -7.035,3.837 -9.806,-2.771c-2.771,-6.608 -25.58,-17.527 -17.48,10.658c0,0 0.426,7.189 9.593,7.615c9.166,0.426 14.282,2.132 10.872,5.329c-3.411,3.198 -8.1,5.116 -5.542,8.1c2.558,2.984 4.477,-0 4.263,5.756c-0.213,5.756 4.903,9.166 -1.492,8.314c-6.395,-0.853 -13.003,0.426 -12.577,3.198c0.426,2.771 -4.05,10.765 8.1,15.455c0,0 1.066,3.837 -7.887,2.558c-8.953,-1.279 -20.038,-7.461 -22.17,-13.856c-2.132,-6.395 -3.411,-4.05 -6.821,-6.821c-3.411,-2.771 -5.329,-7.035 -7.674,-1.705c-2.345,5.329 -13.643,21.53 -30.483,17.906c-16.84,-3.624 -19.612,-2.984 -20.251,0.853c-0.64,3.837 1.066,5.329 6.182,6.395c5.116,1.066 4.05,2.558 8.527,5.116c4.477,2.558 8.74,-2.345 8.74,2.558c0,4.903 -1.279,1.705 0.64,6.821c1.919,5.116 -7.248,11.298 -11.724,7.248c-4.477,-4.05 -12.364,-10.658 -15.561,-10.658c-3.198,0 -4.263,2.984 -5.756,-2.132c-1.492,-5.116 -6.498,-17.066 -15.561,-6.402c-9.064,10.665 0.103,14.502 3.087,15.141c2.984,0.64 4.69,3.411 -0.213,5.329c-4.903,1.919 -6.608,1.279 -5.329,4.903c1.279,3.624 6.395,5.116 5.969,8.527c-0.426,3.411 1.705,5.542 -4.263,5.329c-5.969,-0.213 -5.969,1.066 -5.969,1.066c0,0 8.74,2.558 -3.411,8.1c-12.151,5.542 -31.123,7.248 -29.204,11.511c1.919,4.263 5.756,4.263 2.132,10.232c-3.624,5.969 -12.364,2.984 -13.216,6.608c-0.853,3.624 8.527,0.853 8.527,7.674c0,6.821 -0,1.919 -5.969,8.1c-5.969,6.182 -3.411,8.1 -9.806,6.821c-6.395,-1.279 -6.395,-4.69 -8.74,0.426c-2.345,5.116 1.066,4.05 -3.198,6.821c-4.263,2.771 -6.395,4.69 -7.035,6.395c-0.639,1.705 -184.604,0.583 -184.604,0.583c0,0 -5.321,-0.409 -4.366,-2.729c0.955,-2.319 -1.228,-57.573 -3.411,-64.121c-2.183,-6.549 -15.689,-46.779 -23.056,-46.719c-7.367,0.06 -13.719,-1.381 -23.311,2.882c-9.593,4.263 -69.28,2.495 -81.004,-2.882c-11.724,-5.378 -21.317,-20.833 -19.985,-31.491c1.332,-10.658 2.398,-15.721 8.793,-24.514c0,0 2.931,-6.129 -6.928,-8.527c-9.859,-2.398 -15.455,-3.997 -18.119,-8.26c-2.665,-4.263 -2.132,-14.389 4.796,-21.317c0,0 5.063,-1.332 0,-6.662c-5.063,-5.329 -8.793,-10.925 -6.928,-17.32c1.007,-3.454 1.548,-5.042 1.833,-5.773Zm0.295,-0.62c0.003,-0.002 0.004,-0.002 0.004,-0.002c0,-0 -0.001,0.001 -0.004,0.002Zm-0.295,0.62c-1.248,0.113 0.211,-0.581 0.295,-0.62c-0.016,0.011 -0.087,0.086 -0.295,0.62Zm218.919,-20.186c0,0 -37.838,-10.126 -58.888,31.975c-21.05,42.101 3.997,78.873 3.997,78.873c8.527,9.06 32.242,28.778 61.819,20.251c29.577,-8.527 57.023,-24.781 54.092,-61.819c-2.931,-37.038 -34.906,-57.023 -42.9,-61.553c-7.994,-4.53 -18.119,-7.727 -18.119,-7.727Z"/><path d="M436.721,643.221c0,0 -16.787,50.095 19.985,50.628c36.772,0.533 43.7,-27.446 39.703,-42.634c-3.997,-15.188 -17.32,-17.054 -17.32,-17.853c0,-0.799 -9.859,20.784 -18.119,17.586c-8.26,-3.198 -15.988,-1.066 -15.988,-1.066c0,0 -6.395,-2.132 -8.26,-6.662Z"/><path d="M421.532,673.331c0,0 -2.575,45.113 46.819,43.167c40.581,-1.599 34.186,-22.383 37.117,-29.844l-0.266,-15.988c0,0 -8.95,34.374 -40.048,32.508c0,0 -31.63,4.796 -43.621,-29.844Z"/><path d="M607.8,893.295l-193.984,-0.533c0,0 -5.93,-14.655 7.694,-14.389c13.623,0.266 177.763,0 177.763,0c0,0 9.326,-2.931 9.326,5.596c0,8.527 -0.799,9.326 -0.799,9.326Z" style="stroke:#000;stroke-width:1px;"/><path d="M605.668,944.855l-209.172,0.266c0,0 -6.129,-3.464 3.73,-10.126c9.859,-6.662 3.73,-8.527 6.395,-11.191c2.665,-2.665 0.199,-18.919 14.888,-19.185c14.689,-0.266 180.961,0 180.961,0c0,0 6.129,-1.865 6.129,8.527c0,10.392 2.132,19.985 2.665,24.248c0.533,4.263 2.398,7.194 -5.596,7.461Z" style="stroke:#000;stroke-width:1px;"/></svg>